<svg width="3093" height="743" xmlns="http://www.w3.org/2000/svg" xmlns:xlink="http://www.w3.org/1999/xlink" xml:space="preserve" overflow="hidden"><g transform="translate(-504 -1067)"><g><path d="M507 1089.08C507 1079.65 514.647 1072 524.08 1072L3578.92 1072C3588.35 1072 3596 1079.65 3596 1089.08L3596 1788.92C3596 1798.35 3588.35 1806 3578.92 1806L524.08 1806C514.647 1806 507 1798.35 507 1788.92Z" fill="#FFFFFF" fill-rule="evenodd" fill-opacity="1"/><rect x="994" y="1146" width="2109" height="579" fill="#D6E9D5" fill-opacity="0.392157"/><text fill="#000000" fill-opacity="1" font-family="Calibri,Calibri_MSFontService,sans-serif" font-style="italic" font-variant="normal" font-weight="400" font-stretch="normal" font-size="55" text-anchor="start" direction="ltr" writing-mode="lr-tb" unicode-bidi="normal" text-decoration="none" transform="matrix(1 0 0 1 1491.5 1386)">retrieve</text><path d="M2929.5 1465.5 2929.5 1670.87" stroke="#000000" stroke-width="6.875" stroke-linecap="butt" stroke-linejoin="miter" stroke-miterlimit="8" stroke-opacity="1" fill="none" fill-rule="evenodd"/><path d="M1015.5 1360.83C1015.5 1342.98 1029.98 1328.5 1047.83 1328.5L1439.17 1328.5C1457.02 1328.5 1471.5 1342.98 1471.5 1360.83L1471.5 1490.17C1471.5 1508.02 1457.02 1522.5 1439.17 1522.5L1047.83 1522.5C1029.98 1522.5 1015.5 1508.02 1015.5 1490.17Z" stroke="#FFFFCC" stroke-width="4.58333" stroke-linecap="butt" stroke-linejoin="miter" stroke-miterlimit="8" stroke-opacity="1" fill="#FFF3CE" fill-rule="evenodd" fill-opacity="1"/><text fill="#000000" fill-opacity="1" font-family="Calibri,Calibri_MSFontService,sans-serif" font-style="normal" font-variant="normal" font-weight="400" font-stretch="normal" font-size="64" text-anchor="start" direction="ltr" writing-mode="lr-tb" unicode-bidi="normal" text-decoration="none" transform="matrix(1 0 0 1 1123.51 1452)">Retriever</text><path d="M834.502 1416.06 976.517 1416.12 976.514 1423 834.499 1422.94ZM971.938 1405.81 999.432 1419.57 971.927 1433.31Z" fill="#000000" fill-rule="nonzero" fill-opacity="1"/><path d="M2549.5 1415.06 2750.1 1415.06 2750.1 1421.94 2549.5 1421.94ZM2745.52 1404.75 2773.02 1418.5 2745.52 1432.25Z" fill="#000000" fill-rule="nonzero" fill-opacity="1"/><path d="M1997.5 1276.5C2020.7 1276.5 2039.5 1279.63 2039.5 1283.5L2039.5 1418.5C2039.5 1422.37 2058.3 1425.5 2081.5 1425.5 2058.3 1425.5 2039.5 1428.63 2039.5 1432.5L2039.5 1567.5C2039.5 1571.37 2020.7 1574.5 1997.5 1574.5" stroke="#000000" stroke-width="6.875" stroke-linecap="butt" stroke-linejoin="miter" stroke-miterlimit="8" stroke-opacity="1" fill="none" fill-rule="evenodd"/><path d="M2091.5 1353.83C2091.5 1335.98 2105.98 1321.5 2123.83 1321.5L2515.17 1321.5C2533.02 1321.5 2547.5 1335.98 2547.5 1353.83L2547.5 1483.17C2547.5 1501.02 2533.02 1515.5 2515.17 1515.5L2123.83 1515.5C2105.98 1515.5 2091.5 1501.02 2091.5 1483.17Z" stroke="#CCFFFF" stroke-width="4.58333" stroke-linecap="butt" stroke-linejoin="miter" stroke-miterlimit="8" stroke-opacity="1" fill="#D9E7FC" fill-rule="evenodd" fill-opacity="1"/><text fill="#000000" fill-opacity="1" font-family="Calibri,Calibri_MSFontService,sans-serif" font-style="normal" font-variant="normal" font-weight="400" font-stretch="normal" font-size="64" text-anchor="start" direction="ltr" writing-mode="lr-tb" unicode-bidi="normal" text-decoration="none" transform="matrix(1 0 0 1 2171.56 1445)">Generation</text><text fill="#000000" fill-opacity="1" font-family="Calibri,Calibri_MSFontService,sans-serif" font-style="italic" font-variant="normal" font-weight="400" font-stretch="normal" font-size="55" text-anchor="start" direction="ltr" writing-mode="lr-tb" unicode-bidi="normal" text-decoration="none" transform="matrix(1 0 0 1 2553.8 1379)">generate</text><path d="M0 0 1685.79 0.000360892" stroke="#000000" stroke-width="6.875" stroke-linecap="butt" stroke-linejoin="miter" stroke-miterlimit="8" stroke-opacity="1" fill="none" fill-rule="evenodd" transform="matrix(-1 0 0 1 2929.29 1670.5)"/><path d="M3.4375-8.95817e-06 3.4378 115.568-3.4372 115.568-3.4375 8.95817e-06ZM13.7503 110.984 0.000360892 138.485-13.7497 110.985Z" fill="#000000" fill-rule="nonzero" fill-opacity="1" transform="matrix(1 0 0 -1 1243.5 1670.98)"/><text fill="#548235" fill-opacity="1" font-family="Calibri,Calibri_MSFontService,sans-serif" font-style="normal" font-variant="normal" font-weight="700" font-stretch="normal" font-size="64" text-anchor="start" direction="ltr" writing-mode="lr-tb" unicode-bidi="normal" text-decoration="none" transform="matrix(1 0 0 1 1037.83 1236)">Loop</text><text fill="#000000" fill-opacity="1" font-family="Calibri,Calibri_MSFontService,sans-serif" font-style="italic" font-variant="normal" font-weight="400" font-stretch="normal" font-size="55" text-anchor="start" direction="ltr" writing-mode="lr-tb" unicode-bidi="normal" text-decoration="none" transform="matrix(1 0 0 1 1284.71 1640)">as_new_query</text><path d="M3.4375-2.21527e-05 3.43771 33.0841-3.43729 33.0841-3.4375 2.21527e-05ZM13.7502 28.5007 0.000360892 56.0008-13.7498 28.5008Z" fill="#000000" fill-rule="nonzero" fill-opacity="1" transform="matrix(1 0 0 -1 1850.5 1670.5)"/><path d="M1477.5 1416.06 1670.3 1416.06 1670.3 1422.94 1477.5 1422.94ZM1665.72 1405.75 1693.22 1419.5 1665.72 1433.25Z" fill="#000000" fill-rule="nonzero" fill-opacity="1"/><path d="M539.5 1415.73C539.5 1391.85 558.853 1372.5 582.725 1372.5L783.274 1372.5C807.147 1372.5 826.5 1391.85 826.5 1415.73L826.5 1422.27C826.5 1446.15 807.147 1465.5 783.274 1465.5L582.725 1465.5C558.853 1465.5 539.5 1446.15 539.5 1422.27Z" stroke="#CCCCFF" stroke-width="4.58333" stroke-linecap="butt" stroke-linejoin="miter" stroke-miterlimit="8" stroke-opacity="1" fill="#E5E5F9" fill-rule="evenodd" fill-opacity="1"/><text fill="#000000" fill-opacity="1" font-family="Calibri,Calibri_MSFontService,sans-serif" font-style="normal" font-variant="normal" font-weight="400" font-stretch="normal" font-size="64" text-anchor="start" direction="ltr" writing-mode="lr-tb" unicode-bidi="normal" text-decoration="none" transform="matrix(1 0 0 1 606.223 1438)">Query</text><path d="M3096.5 1416.06 3238.52 1416.12 3238.51 1423 3096.5 1422.94ZM3233.94 1405.81 3261.43 1419.57 3233.93 1433.31Z" fill="#000000" fill-rule="nonzero" fill-opacity="1"/><path d="M1697.5 1276.19C1697.5 1252.06 1717.06 1232.5 1741.19 1232.5L1940.81 1232.5C1964.94 1232.5 1984.5 1252.06 1984.5 1276.19L1984.5 1282.81C1984.5 1306.94 1964.94 1326.5 1940.81 1326.5L1741.19 1326.5C1717.06 1326.5 1697.5 1306.94 1697.5 1282.81Z" stroke="#CCCCFF" stroke-width="4.58333" stroke-linecap="butt" stroke-linejoin="miter" stroke-miterlimit="8" stroke-opacity="1" fill="#E5E5F9" fill-rule="evenodd" fill-opacity="1"/><text fill="#000000" fill-opacity="1" font-family="Calibri,Calibri_MSFontService,sans-serif" font-style="normal" font-variant="normal" font-weight="400" font-stretch="normal" font-size="64" text-anchor="start" direction="ltr" writing-mode="lr-tb" unicode-bidi="normal" text-decoration="none" transform="matrix(1 0 0 1 1764.3 1298)">Query</text><path d="M1701.5 1415.73C1701.5 1391.85 1720.85 1372.5 1744.73 1372.5L1945.27 1372.5C1969.15 1372.5 1988.5 1391.85 1988.5 1415.73L1988.5 1422.27C1988.5 1446.15 1969.15 1465.5 1945.27 1465.5L1744.73 1465.5C1720.85 1465.5 1701.5 1446.15 1701.5 1422.27Z" stroke="#CCCCFF" stroke-width="4.58333" stroke-linecap="butt" stroke-linejoin="miter" stroke-miterlimit="8" stroke-opacity="1" fill="#E5E5F9" fill-rule="evenodd" fill-opacity="1"/><text fill="#000000" fill-opacity="1" font-family="Calibri,Calibri_MSFontService,sans-serif" font-style="normal" font-variant="normal" font-weight="400" font-stretch="normal" font-size="64" text-anchor="start" direction="ltr" writing-mode="lr-tb" unicode-bidi="normal" text-decoration="none" transform="matrix(1 0 0 1 1785.23 1438)">Docs</text><path d="M1698.5 1563.19C1698.5 1539.06 1718.06 1519.5 1742.19 1519.5L1941.81 1519.5C1965.94 1519.5 1985.5 1539.06 1985.5 1563.19L1985.5 1569.81C1985.5 1593.94 1965.94 1613.5 1941.81 1613.5L1742.19 1613.5C1718.06 1613.5 1698.5 1593.94 1698.5 1569.81Z" stroke="#CCCCFF" stroke-width="4.58333" stroke-linecap="butt" stroke-linejoin="miter" stroke-miterlimit="8" stroke-opacity="1" fill="#E5E5F9" fill-rule="evenodd" fill-opacity="1"/><text fill="#000000" fill-opacity="1" font-family="Calibri,Calibri_MSFontService,sans-serif" font-style="normal" font-variant="normal" font-weight="400" font-stretch="normal" font-size="64" text-anchor="start" direction="ltr" writing-mode="lr-tb" unicode-bidi="normal" text-decoration="none" transform="matrix(1 0 0 1 1784.71 1585)">CoTs</text><path d="M2777.5 1415.73C2777.5 1391.85 2796.85 1372.5 2820.73 1372.5L3021.27 1372.5C3045.15 1372.5 3064.5 1391.85 3064.5 1415.73L3064.5 1422.27C3064.5 1446.15 3045.15 1465.5 3021.27 1465.5L2820.73 1465.5C2796.85 1465.5 2777.5 1446.15 2777.5 1422.27Z" stroke="#CCCCFF" stroke-width="4.58333" stroke-linecap="butt" stroke-linejoin="miter" stroke-miterlimit="8" stroke-opacity="1" fill="#E5E5F9" fill-rule="evenodd" fill-opacity="1"/><text fill="#000000" fill-opacity="1" font-family="Calibri,Calibri_MSFontService,sans-serif" font-style="normal" font-variant="normal" font-weight="400" font-stretch="normal" font-size="64" text-anchor="start" direction="ltr" writing-mode="lr-tb" unicode-bidi="normal" text-decoration="none" transform="matrix(1 0 0 1 2874.7 1438)">CoT</text><path d="M3270.5 1415.73C3270.5 1391.85 3289.85 1372.5 3313.73 1372.5L3514.27 1372.5C3538.15 1372.5 3557.5 1391.85 3557.5 1415.73L3557.5 1422.27C3557.5 1446.15 3538.15 1465.5 3514.27 1465.5L3313.73 1465.5C3289.85 1465.5 3270.5 1446.15 3270.5 1422.27Z" stroke="#CCCCFF" stroke-width="4.58333" stroke-linecap="butt" stroke-linejoin="miter" stroke-miterlimit="8" stroke-opacity="1" fill="#E5E5F9" fill-rule="evenodd" fill-opacity="1"/><text fill="#000000" fill-opacity="1" font-family="Calibri,Calibri_MSFontService,sans-serif" font-style="normal" font-variant="normal" font-weight="400" font-stretch="normal" font-size="64" text-anchor="start" direction="ltr" writing-mode="lr-tb" unicode-bidi="normal" text-decoration="none" transform="matrix(1 0 0 1 3319.76 1438)">Answer</text></g></g></svg>