<svg width="3135" height="1329" xmlns="http://www.w3.org/2000/svg" xmlns:xlink="http://www.w3.org/1999/xlink" xml:space="preserve" overflow="hidden"><g transform="translate(-334 -275)"><g><path d="M337 309.787C337 292.784 350.783 279 367.786 279L3436.21 279C3453.22 279 3467 292.784 3467 309.787L3467 1571.21C3467 1588.22 3453.22 1602 3436.21 1602L367.786 1602C350.783 1602 337 1588.22 337 1571.21Z" fill="#F8F9FD" fill-rule="evenodd" fill-opacity="1"/><rect x="381.5" y="908.5" width="3041" height="650" stroke="#000000" stroke-width="3.4375" stroke-linecap="butt" stroke-linejoin="miter" stroke-miterlimit="8" stroke-opacity="1" fill="#FFFFFF" fill-opacity="1"/><rect x="378.5" y="333.5" width="3040" height="542" stroke="#000000" stroke-width="3.4375" stroke-linecap="butt" stroke-linejoin="miter" stroke-miterlimit="8" stroke-opacity="1" fill="#FFFFFF" fill-opacity="1"/><rect x="469" y="1140" width="2904" height="396" fill="#D6E9D5" fill-opacity="0.392157"/><rect x="885" y="1017" width="1219" height="404" fill="#F8CBAD" fill-opacity="0.392157"/><path d="M2168.5 1208.83C2168.5 1190.98 2182.98 1176.5 2200.83 1176.5L2592.17 1176.5C2610.02 1176.5 2624.5 1190.98 2624.5 1208.83L2624.5 1338.17C2624.5 1356.02 2610.02 1370.5 2592.17 1370.5L2200.83 1370.5C2182.98 1370.5 2168.5 1356.02 2168.5 1338.17Z" stroke="#FFFFCC" stroke-width="4.58333" stroke-linecap="butt" stroke-linejoin="miter" stroke-miterlimit="8" stroke-opacity="1" fill="#FFF3CE" fill-rule="evenodd" fill-opacity="1"/><text fill="#000000" fill-opacity="1" font-family="Calibri,Calibri_MSFontService,sans-serif" font-style="normal" font-variant="normal" font-weight="400" font-stretch="normal" font-size="64" text-anchor="start" direction="ltr" writing-mode="lr-tb" unicode-bidi="normal" text-decoration="none" transform="matrix(1 0 0 1 2276.51 1299)">Retriever</text><path d="M794.501 681.062 936.517 681.12 936.514 687.995 794.498 687.937ZM931.938 670.806 959.432 684.567 931.926 698.306Z" fill="#000000" fill-rule="nonzero" fill-opacity="1"/><path d="M3.4375-9.60944e-06 3.4378 106.182-3.4372 106.182-3.4375 9.60944e-06ZM13.7503 101.599 0.000360892 129.099-13.7497 101.599Z" fill="#000000" fill-rule="nonzero" fill-opacity="1" transform="matrix(1 0 0 -1 1189.5 1453.6)"/><path d="M982.5 1158.83C982.5 1140.98 996.976 1126.5 1014.83 1126.5L1405.17 1126.5C1423.02 1126.5 1437.5 1140.98 1437.5 1158.83L1437.5 1288.17C1437.5 1306.02 1423.02 1320.5 1405.17 1320.5L1014.83 1320.5C996.976 1320.5 982.5 1306.02 982.5 1288.17Z" stroke="#CCFFFF" stroke-width="4.58333" stroke-linecap="butt" stroke-linejoin="miter" stroke-miterlimit="8" stroke-opacity="1" fill="#D9E7FC" fill-rule="evenodd" fill-opacity="1"/><text fill="#000000" fill-opacity="1" font-family="Calibri,Calibri_MSFontService,sans-serif" font-style="normal" font-variant="normal" font-weight="400" font-stretch="normal" font-size="64" text-anchor="start" direction="ltr" writing-mode="lr-tb" unicode-bidi="normal" text-decoration="none" transform="matrix(1 0 0 1 1062.36 1250)">Generation</text><text fill="#548235" fill-opacity="1" font-family="Calibri,Calibri_MSFontService,sans-serif" font-style="normal" font-variant="normal" font-weight="700" font-stretch="normal" font-size="64" text-anchor="start" direction="ltr" writing-mode="lr-tb" unicode-bidi="normal" text-decoration="none" transform="matrix(1 0 0 1 507.461 1498)">Loop</text><path d="M2626.5 1273.06 2723.07 1273.06 2723.07 1279.94 2626.5 1279.94ZM2718.49 1262.75 2745.99 1276.5 2718.49 1290.25Z" fill="#000000" fill-rule="nonzero" fill-opacity="1"/><path d="M503.5 676.726C503.5 652.853 522.853 633.5 546.726 633.5L747.275 633.5C771.147 633.5 790.5 652.853 790.5 676.726L790.5 683.274C790.5 707.147 771.147 726.5 747.275 726.5L546.726 726.5C522.853 726.5 503.5 707.147 503.5 683.274Z" stroke="#CCCCFF" stroke-width="4.58333" stroke-linecap="butt" stroke-linejoin="miter" stroke-miterlimit="8" stroke-opacity="1" fill="#E5E5F9" fill-rule="evenodd" fill-opacity="1"/><text fill="#000000" fill-opacity="1" font-family="Calibri,Calibri_MSFontService,sans-serif" font-style="normal" font-variant="normal" font-weight="400" font-stretch="normal" font-size="64" text-anchor="start" direction="ltr" writing-mode="lr-tb" unicode-bidi="normal" text-decoration="none" transform="matrix(1 0 0 1 569.909 699)">Query</text><path d="M2757.5 1270.19C2757.5 1246.06 2777.06 1226.5 2801.19 1226.5L3000.81 1226.5C3024.94 1226.5 3044.5 1246.06 3044.5 1270.19L3044.5 1276.81C3044.5 1300.94 3024.94 1320.5 3000.81 1320.5L2801.19 1320.5C2777.06 1320.5 2757.5 1300.94 2757.5 1276.81Z" stroke="#CCCCFF" stroke-width="4.58333" stroke-linecap="butt" stroke-linejoin="miter" stroke-miterlimit="8" stroke-opacity="1" fill="#E5E5F9" fill-rule="evenodd" fill-opacity="1"/><text fill="#000000" fill-opacity="1" font-family="Calibri,Calibri_MSFontService,sans-serif" font-style="normal" font-variant="normal" font-weight="400" font-stretch="normal" font-size="64" text-anchor="start" direction="ltr" writing-mode="lr-tb" unicode-bidi="normal" text-decoration="none" transform="matrix(1 0 0 1 2841.61 1292)">Docs</text><path d="M1663.5 1072.19C1663.5 1048.06 1683.06 1028.5 1707.19 1028.5L1906.81 1028.5C1930.94 1028.5 1950.5 1048.06 1950.5 1072.19L1950.5 1078.81C1950.5 1102.94 1930.94 1122.5 1906.81 1122.5L1707.19 1122.5C1683.06 1122.5 1663.5 1102.94 1663.5 1078.81Z" stroke="#CCCCFF" stroke-width="4.58333" stroke-linecap="butt" stroke-linejoin="miter" stroke-miterlimit="8" stroke-opacity="1" fill="#E5E5F9" fill-rule="evenodd" fill-opacity="1"/><text fill="#000000" fill-opacity="1" font-family="Calibri,Calibri_MSFontService,sans-serif" font-style="normal" font-variant="normal" font-weight="400" font-stretch="normal" font-size="64" text-anchor="start" direction="ltr" writing-mode="lr-tb" unicode-bidi="normal" text-decoration="none" transform="matrix(1 0 0 1 1712.91 1094)">Answer</text><path d="M0 0 1716.67 0.000360892" stroke="#000000" stroke-width="6.875" stroke-linecap="butt" stroke-linejoin="miter" stroke-miterlimit="8" stroke-opacity="1" fill="none" fill-rule="evenodd" transform="matrix(-1 0 0 1 2901.17 1453.5)"/><path d="M498.5 1226.73C498.5 1202.85 517.853 1183.5 541.725 1183.5L742.275 1183.5C766.147 1183.5 785.5 1202.85 785.5 1226.73L785.5 1233.27C785.5 1257.15 766.147 1276.5 742.275 1276.5L541.725 1276.5C517.853 1276.5 498.5 1257.15 498.5 1233.27Z" stroke="#CCCCFF" stroke-width="4.58333" stroke-linecap="butt" stroke-linejoin="miter" stroke-miterlimit="8" stroke-opacity="1" fill="#E5E5F9" fill-rule="evenodd" fill-opacity="1"/><text fill="#000000" fill-opacity="1" font-family="Calibri,Calibri_MSFontService,sans-serif" font-style="normal" font-variant="normal" font-weight="400" font-stretch="normal" font-size="64" text-anchor="start" direction="ltr" writing-mode="lr-tb" unicode-bidi="normal" text-decoration="none" transform="matrix(1 0 0 1 583.089 1249)">Page</text><text fill="#000000" fill-opacity="1" font-family="Calibri,Calibri_MSFontService,sans-serif" font-style="italic" font-variant="normal" font-weight="400" font-stretch="normal" font-size="55" text-anchor="start" direction="ltr" writing-mode="lr-tb" unicode-bidi="normal" text-decoration="none" transform="matrix(1 0 0 1 781.955 1326)">update</text><path d="M6.55143e-06-3.4375 166.442-3.43718 166.442 3.43782-6.55143e-06 3.4375ZM161.858-13.7497 189.358 0.000360892 161.858 13.7503Z" fill="#000000" fill-rule="nonzero" fill-opacity="1" transform="matrix(1 0 0 -1 792.5 1199.5)"/><path d="M1.02845-3.28004 175.877 51.5434 173.82 58.1034-1.02845 3.28004ZM174.589 40.332 196.715 61.6798 166.361 66.5723Z" fill="#000000" fill-rule="nonzero" fill-opacity="1" transform="matrix(1 0 0 -1 1437.5 1148.18)"/><path d="M1666.5 1274.73C1666.5 1250.85 1685.85 1231.5 1709.73 1231.5L1910.27 1231.5C1934.15 1231.5 1953.5 1250.85 1953.5 1274.73L1953.5 1281.27C1953.5 1305.15 1934.15 1324.5 1910.27 1324.5L1709.73 1324.5C1685.85 1324.5 1666.5 1305.15 1666.5 1281.27Z" stroke="#CCCCFF" stroke-width="4.58333" stroke-linecap="butt" stroke-linejoin="miter" stroke-miterlimit="8" stroke-opacity="1" fill="#E5E5F9" fill-rule="evenodd" fill-opacity="1"/><text fill="#000000" fill-opacity="1" font-family="Calibri,Calibri_MSFontService,sans-serif" font-style="normal" font-variant="normal" font-weight="400" font-stretch="normal" font-size="64" text-anchor="start" direction="ltr" writing-mode="lr-tb" unicode-bidi="normal" text-decoration="none" transform="matrix(1 0 0 1 1731.8 1297)">Sub_q</text><text fill="#F4B183" fill-opacity="1" font-family="Calibri,Calibri_MSFontService,sans-serif" font-style="normal" font-variant="normal" font-weight="700" font-stretch="normal" font-size="64" text-anchor="start" direction="ltr" writing-mode="lr-tb" unicode-bidi="normal" text-decoration="none" transform="matrix(1 0 0 1 907.637 1081)">Branch</text><path d="M959.5 622.834C959.5 604.976 973.976 590.5 991.834 590.5L1382.17 590.5C1400.02 590.5 1414.5 604.976 1414.5 622.834L1414.5 752.166C1414.5 770.024 1400.02 784.5 1382.17 784.5L991.834 784.5C973.976 784.5 959.5 770.024 959.5 752.166Z" stroke="#FFFFCC" stroke-width="4.58333" stroke-linecap="butt" stroke-linejoin="miter" stroke-miterlimit="8" stroke-opacity="1" fill="#FFF3CE" fill-rule="evenodd" fill-opacity="1"/><text fill="#000000" fill-opacity="1" font-family="Calibri,Calibri_MSFontService,sans-serif" font-style="normal" font-variant="normal" font-weight="400" font-stretch="normal" font-size="64" text-anchor="start" direction="ltr" writing-mode="lr-tb" unicode-bidi="normal" text-decoration="none" transform="matrix(1 0 0 1 1066.9 714)">Retriever</text><path d="M1414.5 689.063 1511.07 689.063 1511.07 695.938 1414.5 695.938ZM1506.49 678.75 1533.99 692.501 1506.49 706.25Z" fill="#000000" fill-rule="nonzero" fill-opacity="1"/><path d="M1549.5 676.726C1549.5 652.853 1568.85 633.5 1592.73 633.5L1793.27 633.5C1817.15 633.5 1836.5 652.853 1836.5 676.726L1836.5 683.274C1836.5 707.147 1817.15 726.5 1793.27 726.5L1592.73 726.5C1568.85 726.5 1549.5 707.147 1549.5 683.274Z" stroke="#CCCCFF" stroke-width="4.58333" stroke-linecap="butt" stroke-linejoin="miter" stroke-miterlimit="8" stroke-opacity="1" fill="#E5E5F9" fill-rule="evenodd" fill-opacity="1"/><text fill="#000000" fill-opacity="1" font-family="Calibri,Calibri_MSFontService,sans-serif" font-style="normal" font-variant="normal" font-weight="400" font-stretch="normal" font-size="64" text-anchor="start" direction="ltr" writing-mode="lr-tb" unicode-bidi="normal" text-decoration="none" transform="matrix(1 0 0 1 1633.59 698)">Docs</text><path d="M1846.5 682.062 1966.73 682.063 1966.73 688.938 1846.5 688.937ZM1962.15 671.75 1989.65 685.5 1962.15 699.25Z" fill="#000000" fill-rule="nonzero" fill-opacity="1"/><path d="M2001.5 629.834C2001.5 611.976 2015.98 597.5 2033.83 597.5L2425.17 597.5C2443.02 597.5 2457.5 611.976 2457.5 629.834L2457.5 759.166C2457.5 777.023 2443.02 791.5 2425.17 791.5L2033.83 791.5C2015.98 791.5 2001.5 777.023 2001.5 759.166Z" stroke="#CCFFFF" stroke-width="4.58333" stroke-linecap="butt" stroke-linejoin="miter" stroke-miterlimit="8" stroke-opacity="1" fill="#D9E7FC" fill-rule="evenodd" fill-opacity="1"/><text fill="#000000" fill-opacity="1" font-family="Calibri,Calibri_MSFontService,sans-serif" font-style="normal" font-variant="normal" font-weight="400" font-stretch="normal" font-size="64" text-anchor="start" direction="ltr" writing-mode="lr-tb" unicode-bidi="normal" text-decoration="none" transform="matrix(1 0 0 1 2081.73 721)">Generation</text><text fill="#000000" fill-opacity="1" font-family="Calibri,Calibri_MSFontService,sans-serif" font-style="italic" font-variant="normal" font-weight="400" font-stretch="normal" font-size="55" text-anchor="start" direction="ltr" writing-mode="lr-tb" unicode-bidi="normal" text-decoration="none" transform="matrix(1 0 0 1 1422.87 633)">retrieve</text><path d="M638.5 496.5 638.5 622.782" stroke="#000000" stroke-width="6.875" stroke-linecap="butt" stroke-linejoin="miter" stroke-miterlimit="8" stroke-opacity="1" fill="none" fill-rule="evenodd"/><path d="M0 0 1627.58 0.000360892" stroke="#000000" stroke-width="6.875" stroke-linecap="butt" stroke-linejoin="miter" stroke-miterlimit="8" stroke-opacity="1" fill="none" fill-rule="evenodd" transform="matrix(-1 0 0 1 2266.07 499.5)"/><path d="M2269.94 499.5 2269.94 575.286 2263.06 575.286 2263.06 499.5ZM2280.25 570.702 2266.5 598.202 2252.75 570.702Z" fill="#000000" fill-rule="nonzero" fill-opacity="1"/><text fill="#000000" fill-opacity="1" font-family="Calibri,Calibri_MSFontService,sans-serif" font-style="italic" font-variant="normal" font-weight="400" font-stretch="normal" font-size="55" text-anchor="start" direction="ltr" writing-mode="lr-tb" unicode-bidi="normal" text-decoration="none" transform="matrix(1 0 0 1 2466.46 652)">generate</text><path d="M2469.5 694.062 2585.3 694.063 2585.3 700.938 2469.5 700.937ZM2580.72 683.75 2608.22 697.5 2580.72 711.25Z" fill="#000000" fill-rule="nonzero" fill-opacity="1"/><path d="M2622.5 688.726C2622.5 664.853 2641.85 645.5 2665.73 645.5L2866.27 645.5C2890.15 645.5 2909.5 664.853 2909.5 688.726L2909.5 695.274C2909.5 719.147 2890.15 738.5 2866.27 738.5L2665.73 738.5C2641.85 738.5 2622.5 719.147 2622.5 695.274Z" stroke="#CCCCFF" stroke-width="4.58333" stroke-linecap="butt" stroke-linejoin="miter" stroke-miterlimit="8" stroke-opacity="1" fill="#E5E5F9" fill-rule="evenodd" fill-opacity="1"/><text fill="#000000" fill-opacity="1" font-family="Calibri,Calibri_MSFontService,sans-serif" font-style="normal" font-variant="normal" font-weight="400" font-stretch="normal" font-size="64" text-anchor="start" direction="ltr" writing-mode="lr-tb" unicode-bidi="normal" text-decoration="none" transform="matrix(1 0 0 1 2712.4 711)">Plan</text><path d="M2919.5 690.062 3035.3 690.063 3035.3 696.938 2919.5 696.937ZM3030.72 679.75 3058.22 693.5 3030.72 707.25Z" fill="#000000" fill-rule="nonzero" fill-opacity="1"/><path d="M3076.5 688.726C3076.5 664.853 3095.85 645.5 3119.73 645.5L3320.27 645.5C3344.15 645.5 3363.5 664.853 3363.5 688.726L3363.5 695.274C3363.5 719.147 3344.15 738.5 3320.27 738.5L3119.73 738.5C3095.85 738.5 3076.5 719.147 3076.5 695.274Z" stroke="#CCCCFF" stroke-width="4.58333" stroke-linecap="butt" stroke-linejoin="miter" stroke-miterlimit="8" stroke-opacity="1" fill="#E5E5F9" fill-rule="evenodd" fill-opacity="1"/><text fill="#000000" fill-opacity="1" font-family="Calibri,Calibri_MSFontService,sans-serif" font-style="normal" font-variant="normal" font-weight="400" font-stretch="normal" font-size="64" text-anchor="start" direction="ltr" writing-mode="lr-tb" unicode-bidi="normal" text-decoration="none" transform="matrix(1 0 0 1 3161.23 711)">Page</text><text fill="#000000" fill-opacity="1" font-family="Calibri,Calibri_MSFontService,sans-serif" font-style="italic" font-variant="normal" font-weight="400" font-stretch="normal" font-size="55" text-anchor="start" direction="ltr" writing-mode="lr-tb" unicode-bidi="normal" text-decoration="none" transform="matrix(1 0 0 1 1443.43 1217)">generate</text><path d="M1960.5 1273.06 2151.09 1273.06 2151.09 1279.94 1960.5 1279.94ZM2146.5 1262.75 2174 1276.5 2146.5 1290.25Z" fill="#000000" fill-rule="nonzero" fill-opacity="1"/><path d="M978.878 1255.94 806.417 1255.94 806.417 1249.06 978.878 1249.06ZM811 1266.25 783.5 1252.5 811 1238.75Z" fill="#000000" fill-rule="nonzero" fill-opacity="1"/><path d="M2902.5 1327.5 2902.5 1453.78" stroke="#000000" stroke-width="6.875" stroke-linecap="butt" stroke-linejoin="miter" stroke-miterlimit="8" stroke-opacity="1" fill="none" fill-rule="evenodd"/><text fill="#2E75B6" fill-opacity="1" font-family="Calibri,Calibri_MSFontService,sans-serif" font-style="normal" font-variant="normal" font-weight="700" font-stretch="normal" font-size="64" text-anchor="start" direction="ltr" writing-mode="lr-tb" unicode-bidi="normal" text-decoration="underline" transform="matrix(1 0 0 1 410.643 410)">(a) Initial Page Stage</text><path d="M3261.75 839.5 3261.75 932 3275.5 932 3248 959.5 3220.5 932 3234.25 932 3234.25 839.5Z" stroke="#000000" stroke-width="4.58333" stroke-linecap="butt" stroke-linejoin="miter" stroke-miterlimit="8" stroke-opacity="1" fill="#D0CECE" fill-rule="evenodd" fill-opacity="1"/><text fill="#2E75B6" fill-opacity="1" font-family="Calibri,Calibri_MSFontService,sans-serif" font-style="normal" font-variant="normal" font-weight="700" font-stretch="normal" font-size="64" text-anchor="start" direction="ltr" writing-mode="lr-tb" unicode-bidi="normal" text-decoration="underline" transform="matrix(1 0 0 1 395.596 978)">(b) Update Page Stage</text><path d="M1437.5 1264.06 1619.71 1264.06 1619.71 1270.94 1437.5 1270.94ZM1615.13 1253.75 1642.63 1267.5 1615.13 1281.25Z" fill="#000000" fill-rule="nonzero" fill-opacity="1"/></g></g></svg>